<?xml version="1.0" encoding="utf-8"?>
<!DOCTYPE svg PUBLIC "-//W3C//DTD SVG 1.1//EN" "http://www.w3.org/Graphics/SVG/1.1/DTD/svg11.dtd">
<svg version="1.1" id="Layer_1" xmlns="http://www.w3.org/2000/svg" xmlns:xlink="http://www.w3.org/1999/xlink" x="0px" y="0px"
	 viewBox="0 0 1536 1920" enable-background="new 0 0 1536 1920" xml:space="preserve">
<g id="_x23_ffffffff">
</g>
<g id="_x23_fefefeff">
</g>
<g>
	<path fill="#641D00" stroke="#641D00" stroke-width="0.394" d="M622.13,77.74c25.9,0.01,51.8-0.01,77.7,0.01
		c0.07,23.76,0.01,47.52,0,71.28c0.06,1.83,0.19,3.69,0.71,5.47c1.66,0.89,3.6,0.9,5.45,0.97c49.66-0.18,99.32,0.08,148.98-0.11
		c0.76,7.86,0.19,15.76,0.32,23.65c0.1,17.88-0.2,35.76,0.11,53.64c2.52,0.33,5.05,0.65,7.61,0.69c23.37-0.02,46.74-0.03,70.11-0.04
		c0.02,25.9-0.05,51.8,0.04,77.7c-25.94,0.1-51.8799,0.02-77.8199,0.05c-0.02-25.93,0.1-51.87-0.05-77.79
		c-25.92,0.11-51.83-0.11-77.74,0.1c0.14,25.9-0.04,51.79,0.09,77.68c-25.94-0.02-51.88,0.08-77.82-0.05
		c0.04-25.9,0.01-51.81,0.02-77.71c-25.92,0.02-51.85-0.02-77.77,0.01c0.04,25.9-0.05,51.8,0.04,77.69
		c-25.98,0.15-51.96,0.03-77.94,0.07c-25.8-0.08-51.6,0.1-77.4-0.08l-0.17,0.81c-25.56,0.22-51.12-0.23-76.67,0.23
		c-0.36,20-0.05,40.01-0.16,60.01c-0.1,5.49,0.48,11.03-0.49,16.47c-0.08-25.74-0.01-51.48-0.04-77.22
		c25.76,0.04,51.52-0.02,77.29,0.03c0.03-25.99,0.02-51.98,0-77.98c25.92-0.09,51.85,0,77.77-0.03c0.03-25.92,0.02-51.84,0-77.76
		c25.94-0.03,51.87,0,77.8-0.01C622.12,129.59,622.04,103.67,622.13,77.74z"/>
	<path fill="#5E3726" stroke="#5E3726" stroke-width="0.394" d="M699.83,77.75c103.67-0.01,207.35-0.01,311.02,0
		c0.06,25.91-0.0099,51.83,0.04,77.74c25.91,0.06,51.8199,0.02,77.73,0.02c0.0601,25.92-0.02,51.84,0.05,77.76
		c25.9199,0.05,51.84-0.04,77.76,0.04c-0.04,25.88-0.04,51.76,0,77.64c-25.9,0.22-51.8,0.03-77.7001,0.1
		c-0.33-17.67-0.0599-35.35-0.14-53.02c0.1901-7.74-0.61-15.56,0.8401-23.23c-1.6901-0.96-3.54-1.69-5.5-1.56
		c-24.3501,0.03-48.7101,0.04-73.0601,0.03c-25.92,0.04-51.84-0.01-77.75,0.03c-23.37,0.01-46.74,0.02-70.11,0.04
		c-2.56-0.04-5.09-0.36-7.61-0.69c-0.31-17.88-0.01-35.76-0.11-53.64c-0.13-7.89,0.44-15.79-0.32-23.65
		c-49.66,0.19-99.3199-0.07-148.98,0.11c-1.85-0.07-3.79-0.08-5.45-0.97c-0.52-1.78-0.65-3.64-0.71-5.47
		C699.84,125.27,699.9,101.51,699.83,77.75z"/>
	<path fill="#E59071" stroke="#E59071" stroke-width="0.394" d="M622.07,233.29c25.92-0.03,51.85,0.01,77.77-0.01
		c-0.01,25.9,0.02,51.81-0.02,77.71c-25.9,0.15-51.81,0.22-77.71-0.01C622.02,285.09,622.11,259.19,622.07,233.29z"/>
	<path fill="#E59071" stroke="#E59071" stroke-width="0.394" d="M777.55,233.36c25.91-0.21,51.82,0.01,77.74-0.1
		c0.15,25.92,0.03,51.86,0.05,77.79c-25.9-0.02-51.8,0.07-77.7-0.01C777.51,285.15,777.69,259.26,777.55,233.36z"/>
	<path fill="#E59071" stroke="#E59071" stroke-width="0.394" d="M933.12,233.3c25.91-0.04,51.83,0.01,77.75-0.03
		c0.01,25.93,0.02,51.87,0,77.81c-15.3-0.21-30.6,0.18-45.89-0.18c-10.61,0.38-21.22,0.29-31.82,0.1
		C933.07,285.1,933.14,259.2,933.12,233.3z"/>
	<path fill="#E59071" stroke="#E59071" stroke-width="0.394" d="M466.77,310.97c25.8,0.18,51.6,0,77.4,0.08
		c0.34,42.66,0.06,85.32,0.14,127.99c-0.1,9.19,0.35,18.41-0.33,27.59c-25.8-0.1-51.6,0.01-77.4-0.05
		c0.01-51.6-0.04-103.2,0.02-154.8L466.77,310.97z"/>
	<path fill="#651E00" stroke="#651E00" stroke-width="0.394" d="M1010.87,233.27c24.35,0.01,48.71,0,73.0601-0.03
		c1.96-0.13,3.8099,0.6,5.5,1.56c-1.4501,7.67-0.65,15.49-0.8401,23.23c0.0801,17.67-0.1899,35.35,0.14,53.02
		c-25.95,0.02-51.91-0.04-77.86,0.03C1010.89,285.14,1010.88,259.2,1010.87,233.27z"/>
	<path fill="#E8B3A1" stroke="#E8B3A1" stroke-width="0.394" d="M77.75,312.88c-0.32-2.53,2.71-1.63,4.23-1.94
		c24.52,0.42,49.04-0.21,73.56,0.29c-0.02,51.73-0.06,103.46,0.02,155.2c-25.96,0.38-51.94,0.11-77.91,0.13
		C77.78,415.33,77.57,364.09,77.75,312.88z"/>
	<path fill="#E8B3A1" stroke="#E8B3A1" stroke-width="0.394" d="M1018.98,932.32c22.8101-0.13,45.62,0.3,68.42-0.23
		c0.1899,0.1,0.59,0.31,0.7899,0.42c-171.4,0.28-342.8099,0.03-514.21,0.12c-9.69,0.12-19.4-0.26-29.08,0.17
		c4.66-0.84,9.4-0.46,14.11-0.47C712.34,932.32,865.66,932.34,1018.98,932.32z"/>
	<path fill="#E9B4A2" stroke="#E9B4A2" stroke-width="0.394" d="M544.17,311.05c25.98-0.04,51.96,0.08,77.94-0.07
		c25.9,0.23,51.81,0.16,77.71,0.01c25.94,0.13,51.88,0.03,77.82,0.05c25.9,0.08,51.8-0.01,77.7,0.01
		c25.94-0.03,51.8799,0.05,77.8199-0.05c10.6,0.19,21.21,0.28,31.82-0.1c15.29,0.36,30.59-0.03,45.89,0.18
		c25.95-0.07,51.91-0.01,77.86-0.03c25.9-0.07,51.8,0.12,77.7001-0.1c-0.04,155.51-0.1101,311.01,0.0299,466.52
		c-25.9299,0.27-51.86,0.02-77.7899,0.1201c-155.4401,0.02-310.89,0.04-466.33,0c-0.52-20.8701-0.1-41.75-0.2401-62.6201
		c-0.18-4.85,0.66-9.8199-0.59-14.56c-3.78-1-7.73-0.5699-11.58-0.61c-47.68-0.03-95.37,0.07-143.05-0.05
		c-0.57-23.93-0.14-47.87-0.25-71.81c-0.04-53.78,0.03-107.57-0.05-161.36c25.8,0.06,51.6-0.05,77.4,0.05
		c0.68-9.18,0.23-18.4,0.33-27.59C544.23,396.37,544.51,353.71,544.17,311.05 M622.21,388.84c-0.1,25.9-0.26,51.8,0.06,77.69
		c-0.77,8.47-0.21,16.99-0.27,25.49c-0.15,15.65,0.22,31.3-0.12,46.95c0,2.2-0.22,5.75,3.02,5.3c48.03,0.13,96.08,0.02,144.11,0.05
		c2.9,0.03,5.8-0.15,8.7-0.43c-0.15-25.78,0.03-51.56-0.13-77.33c-0.01-25.94,0.1-51.87-0.06-77.8
		c-25.89,0.06-51.78,0.04-77.67,0.01l0.01,1.27c-0.41-1.72-2.53-1.13-3.78-1.35C671.46,388.83,646.83,388.54,622.21,388.84
		 M933.24,388.95c-0.04,25.86-0.14,51.73,0.05,77.59c-0.18,25.82-0.03,51.65-0.08,77.47c25.88,0.69,51.79,0.13,77.69,0.28
		c-0.05,25.93,0.03,51.86-0.04,77.78c-129.6-0.01-259.2,0.01-388.81-0.01c0.05,25.93-0.03,51.87,0.04,77.8
		c155.52-0.06,311.04,0.02,466.56-0.04c0-51.84-0.01-103.68,0-155.52h-0.39c0.48-13.09,0.0699-26.2,0.21-39.29
		c-0.1799-12.82,0.39-25.65-0.28-38.45h0.4801c-0.11-25.93,0.0599-51.87-0.0901-77.81c-25.8999,0.09-51.8099,0.02-77.72,0.04
		l0.02,1.31c-0.22-0.28-0.64-0.83-0.85-1.1c-5.3101-0.66-10.67-0.11-16-0.27C973.77,388.85,953.49,388.43,933.24,388.95
		 M544.32,544.32c-0.02,25.91,0.04,51.81-0.03,77.72c25.91,0.05,51.83,0.06,77.75-0.0099c0.06-25.91-0.0099-51.83,0.04-77.75
		C596.16,544.37,570.24,544.29,544.32,544.32z"/>
	<path fill="#E9B4A2" stroke="#E9B4A2" stroke-width="0.394" d="M1321.83,1555c25.9601,0.61,51.9601,0.09,77.9301,0.27
		c-0.1801,25.83-0.09,51.66-0.04,77.5c-11.25,0.5599-22.5-0.05-33.75,0.1c-14.6799-0.05-29.35,0.0699-44.02-0.05
		C1321.66,1606.88,1321.9,1580.9399,1321.83,1555z"/>
	<path fill="#AE5B3D" stroke="#AE5B3D" stroke-width="0.394" d="M1166.4301,310.95c25.9199,0.18,51.84-0.15,77.7599,0.09
		c0,181.45-0.0599,362.9,0.03,544.34c-51.87,0.06-103.74-0.04-155.61,0.05c0.04,25.78-0.01,51.55,0.02,77.32l-0.4401-0.24
		c-0.2-0.11-0.6-0.32-0.7899-0.42c-22.8,0.53-45.61,0.1-68.42,0.23c-153.32,0.02-306.64,0-459.97,0.01
		c-4.71,0.01-9.45-0.37-14.11,0.47l-0.27,0.05c-0.54-4.95-0.27-9.92-0.31-14.88c-0.03-20.8,0.04-41.59-0.05-62.39
		c35.56-0.56,71.14-0.09,106.71-0.24c145.82-0.03,291.64,0.06,437.46-0.05c0.4901-25.89,0.04-51.8,0.2301-77.7
		c25.9299-0.1,51.86,0.15,77.7899-0.1201C1166.3199,621.96,1166.39,466.46,1166.4301,310.95z"/>
	<path fill="#AE5B3D" stroke="#AE5B3D" stroke-width="0.394" d="M389.93,312.01c25.55-0.46,51.11-0.01,76.67-0.23
		c-0.06,51.6-0.01,103.2-0.02,154.8c-25.91,0.05-51.81-0.12-77.71,0.1c-0.23,103.65,0.19,207.3-0.21,310.95
		c-25.85-0.05-51.71,0.02-77.56-0.04c-0.38-34.1801-0.03-68.38-0.17-102.56c0.17-95.44-0.25-190.88,0.18-286.31
		c26.05-0.09,52.13,0.39,78.17-0.23c0.97-5.44,0.39-10.98,0.49-16.47C389.88,352.02,389.57,332.01,389.93,312.01z"/>
	<path fill="#AE5B3D" stroke="#AE5B3D" stroke-width="0.394" d="M389.07,777.63c51.73-0.04,103.46-0.08,155.19,0.05
		c0.13,25.9,0.09,51.8,0.01,77.7c-51.84,0.01-103.67,0.05-155.51-0.02C389.33,829.46,388.75,803.54,389.07,777.63z"/>
	<path fill="#F7ECEA" stroke="#F7ECEA" stroke-width="0.394" d="M622.21,388.84c24.62-0.3,49.25-0.01,73.87-0.15
		c1.25,0.22,3.37-0.37,3.78,1.35c-0.03,25.5,0,51-0.02,76.51c-25.86-0.05-51.71-0.03-77.57-0.02
		C621.95,440.64,622.11,414.74,622.21,388.84z"/>
	<path fill="#F7ECEA" stroke="#F7ECEA" stroke-width="0.394" d="M933.24,388.95c20.25-0.52,40.53-0.1,60.79-0.22
		c5.33,0.16,10.6899-0.39,16,0.27c0.21,0.27,0.6299,0.82,0.85,1.1c0,25.48,0.01,50.96-0.01,76.44c-25.86-0.04-51.72-0.03-77.58,0
		C933.1,440.68,933.2,414.81,933.24,388.95z"/>
	<path fill="#0D0200" stroke="#0D0200" stroke-width="0.394" d="M699.85,388.77c25.89,0.03,51.78,0.05,77.67-0.01
		c0.16,25.93,0.05,51.86,0.06,77.8c-25.92-0.02-51.83-0.01-77.74-0.01c0.02-25.51-0.01-51.01,0.02-76.51L699.85,388.77z"/>
	<path fill="#0E0301" stroke="#0E0301" stroke-width="0.394" d="M1010.86,388.79c25.91-0.02,51.8201,0.05,77.72-0.04
		c0.15,25.94-0.0199,51.88,0.0901,77.81h-0.4801c-25.7699-0.04-51.5499,0-77.3199-0.02c0.02-25.48,0.01-50.96,0.01-76.44
		L1010.86,388.79z"/>
	<path fill="#E69172" stroke="#E69172" stroke-width="0.394" d="M0,466.27c25.87,0.59,51.77,0.04,77.65,0.29
		c25.97-0.02,51.95,0.25,77.91-0.13c0.07,25.67-0.13,51.34,0.1,77.01c-27.22,0.5-54.45-0.04-81.67,0.26
		c-22.33,0.05-44.66-0.04-66.99,0.05c-2.34-0.02-4.68-0.14-7-0.39V466.27z"/>
	<path fill="#E69172" stroke="#E69172" stroke-width="0.394" d="M388.87,466.68c25.9-0.22,51.8-0.05,77.71-0.1
		c0.08,53.79,0.01,107.58,0.05,161.36c0.11,23.94-0.32,47.88,0.25,71.81c47.68,0.12,95.37,0.02,143.05,0.05
		c3.85,0.04,7.8-0.39,11.58,0.61c1.25,4.7401,0.41,9.71,0.59,14.56c0.14,20.8701-0.28,41.75,0.2401,62.6201
		c155.44,0.04,310.89,0.02,466.33,0c-0.1901,25.9,0.26,51.81-0.2301,77.7c-145.8199,0.11-291.64,0.02-437.46,0.05
		c-35.57,0.15-71.15-0.32-106.71,0.24v-0.2c0.08-25.9,0.12-51.8-0.01-77.7c-51.73-0.13-103.46-0.09-155.19-0.05
		c-0.32,25.91,0.26,51.83-0.31,77.73c-0.26-25.91-0.09-51.82-0.1-77.73C389.06,673.98,388.64,570.33,388.87,466.68z"/>
	<path fill="#E69172" stroke="#E69172" stroke-width="0.394" d="M622.27,466.53c25.86-0.01,51.71-0.03,77.57,0.02
		c25.91,0,51.8199-0.01,77.74,0.01c0.16,25.77-0.02,51.55,0.13,77.33c-2.9,0.28-5.8,0.46-8.7,0.43
		c-48.03-0.03-96.08,0.08-144.11-0.05c-3.2401,0.45-3.02-3.1-3.02-5.3c0.34-15.65-0.03-31.3,0.12-46.95
		C622.06,483.52,621.5,475,622.27,466.53z"/>
	<path fill="#E69172" stroke="#E69172" stroke-width="0.394" d="M933.29,466.54c25.86-0.03,51.72-0.04,77.58,0
		c25.77,0.02,51.55-0.02,77.3199,0.02c0.67,12.8,0.1001,25.63,0.28,38.45c-0.14,13.09,0.27,26.2-0.21,39.29
		c-25.78,0.04-51.5701,0.06-77.36-0.01c-25.9-0.15-51.81,0.41-77.69-0.28C933.26,518.19,933.11,492.36,933.29,466.54z"/>
	<path fill="#E69172" stroke="#E69172" stroke-width="0.394" d="M1321.88,1477.4301c26,0.09,51.99,0.0199,77.99,0.0499
		c25.8101-0.03,51.62,0.0701,77.4301-0.0499l0.2699-0.01c-0.1699,25.86-0.09,51.72-0.0499,77.5699
		c-9.84,0.65-19.71,0.12-29.5601,0.29c-16.0599-0.02-32.13,0.02-48.2-0.01c-25.97-0.1801-51.97,0.34-77.9301-0.27
		C1321.86,1529.15,1321.77,1503.29,1321.88,1477.4301z"/>
	<path fill="#92AF76" stroke="#92AF76" stroke-width="0.394" d="M0,543.36c2.32,0.25,4.66,0.37,7,0.39
		c22.33-0.09,44.66,0,66.99-0.05c27.22-0.3,54.45,0.24,81.67-0.26c0.02,119.51-0.01,239.03,0.02,358.55
		c0.1,10.34-0.33,20.68,0.35,31.01c-0.3-0.27-0.89-0.81-1.18-1.08c0.56-3.95,0.63-7.93,0.57-11.9
		c-0.12-125.06,0.12-250.12-0.11-375.17c-3.42-0.49-6.88-0.39-10.32-0.36C96.66,544.61,48.33,544.26,0,544.4V543.36z"/>
	<path fill="#013B00" stroke="#013B00" stroke-width="0.394" d="M0,544.4c48.33-0.14,96.66,0.21,144.99,0.09
		c3.44-0.03,6.9-0.13,10.32,0.36c-25.76,0.75-51.57,0.05-77.34,0.32c-0.6,15.91-0.11,31.85-0.27,47.78
		c0,131.36,0,262.72,0.01,394.08c0.12,7.93-0.38,15.89,0.35,23.81c-26.02,0.03-52.04,0.0099-78.06,0.02V544.4z"/>
	<path fill="#013B00" stroke="#013B00" stroke-width="0.394" d="M543.75,933.71c7.05,0.8,14.17,0.39,21.25,0.46
		c150.67-0.02,301.33-0.01,452-0.01c23.89-0.14,47.8,0.3,71.6801-0.25c0.0199,24.89,0.0499,49.79-0.01,74.6801
		c-0.02,0.52-0.0801,1.5699-0.11,2.09c-25.89,0.31-51.79,0.02-77.6801,0.15c-0.19,51.81-0.02,103.6299-0.08,155.44
		c-51.92,0.2999-103.86,0.04-155.78,0.13c-51.73-0.02-103.45,0.0499-155.17-0.04c-0.13-51.75,0.07-103.5-0.1-155.25
		c-9.55-0.62-19.13-0.24-28.69-0.34c-42.25-0.05-84.5,0.1-126.76-0.07c0.04-20.91,0-41.81,0.03-62.71
		C544.33,943.22,544.62,938.42,543.75,933.71 M777.68,1012.97c-0.17,14.67-0.04,29.36-0.07,44.05c0.25,10.53-0.52,21.11,0.39,31.61
		c25.64-0.04,51.27-0.08,76.91,0.01c1.04-8.52,0.21-17.13,0.4901-25.6901c-0.2401-17.2899,0.44-34.62-0.38-51.89
		c-23.97-0.69-47.97-0.04-71.95-0.34C781.21,1010.86,777.63,1010.13,777.68,1012.97z"/>
	<path fill="#013B00" stroke="#013B00" stroke-width="0.394" d="M155.47,1010.83c89.19,0.02,178.38-0.02,267.57,0.04
		c14.5,0.18,29.04-0.53,43.52,0.39c0,103.53,0.04,207.0599,0,310.6c0,25.96-0.21,51.9301,0.1,77.9
		c234.44-0.15,468.87-0.02,703.3099-0.0701c24.65-0.1599,49.3101,0.3201,73.9501-0.24c0.61,25.9801,0.08,52,0.2699,78
		c-25.9299,0.02-51.87-0.0199-77.7999,0.03l-1.3,0.01c-180.9399,0.09-361.8799,0-542.8099,0.04
		c-51.91-0.03-103.8101,0.0599-155.71-0.05c-25.94-0.08-51.87,0.04-77.81-0.0599c0.01-129.6001,0.05-259.2001-0.02-388.8
		c-77.74,0.01-155.49,0.04-233.23-0.01C155.5,1062.6801,155.56,1036.75,155.47,1010.83z"/>
	<path fill="#013B00" stroke="#013B00" stroke-width="0.394" d="M1244.1899,1011.07c25.8701-0.45,51.76-0.15,77.64-0.15
		c-0.1599,11.36,0.3301,22.72,0.04,34.08c0.25,14-0.37,28.04,0.24,42.03c-0.0599,2.03,2.6,1.35,3.88,1.62
		c24.47-0.05,48.95-0.09,73.42,0.01c0.65,25.1,0.13,50.24,0.2899,75.35c0.01,55.99,0.01,111.98,0,167.96
		c0.12,48.5-0.22,97.01,0.17,145.51c-26-0.03-51.99,0.04-77.99-0.0499c0-129.6001,0.03-259.2001-0.02-388.8
		c-25.89-0.01-51.79,0.02-77.6899-0.01c-0.1901,76.46,0.0399,152.92-0.0901,229.38c-0.1,26.95,0.3401,53.91-0.21,80.85
		c-1.24-9.24-0.67-18.5699-0.79-27.85c0.0901-11.3101-0.25-22.63,0.26-33.92c-0.5-11.0199-0.11-22.0599-0.27-33.08
		c0.0901-19.67-0.1899-39.34,0.2101-59.01c-0.23-25.99-0.41-52,0.03-77.99c-0.4801-24.67-0.1001-49.35-0.26-74.02
		c-0.17-3.72,1.3099-7.25,1.1799-10.96C1244.14,1058.37,1244.22,1034.72,1244.1899,1011.07z"/>
	<path fill="#350400" stroke="#350400" stroke-width="0.394" d="M544.32,544.32c25.92-0.03,51.84,0.05,77.76-0.04
		c-0.05,25.92,0.02,51.84-0.04,77.75c-25.92,0.0699-51.84,0.06-77.75,0.0099C544.36,596.13,544.3,570.23,544.32,544.32z"/>
	<path fill="#350400" stroke="#350400" stroke-width="0.394" d="M1010.9,544.29c25.7899,0.07,51.58,0.05,77.36,0.01h0.39
		c-0.01,51.84,0,103.68,0,155.52c-155.52,0.06-311.04-0.02-466.56,0.04c-0.07-25.93,0.0099-51.87-0.04-77.8
		c129.61,0.02,259.21,0,388.81,0.01C1010.93,596.15,1010.85,570.22,1010.9,544.29z"/>
	<path fill="#047A00" stroke="#047A00" stroke-width="0.394" d="M77.97,545.17c25.77-0.27,51.58,0.43,77.34-0.32
		c0.23,125.05-0.01,250.11,0.11,375.17c0.06,3.97-0.01,7.95-0.57,11.9c0.29,0.27,0.88,0.81,1.18,1.08c0.26,0.35,0.77,1.05,1.02,1.4
		c23.97-0.72,47.95-0.23,71.92-0.28c97.01-0.08,194.03-0.16,291.04-0.03c7.91-0.22,15.86,0.5099,23.74-0.38
		c0.87,4.71,0.58,9.5099,0.58,14.28c-0.03,20.9,0.01,41.8-0.03,62.71c42.26,0.17,84.51,0.02,126.76,0.07
		c9.56,0.1,19.14-0.28,28.69,0.34c0.17,51.75-0.03,103.5,0.1,155.25c0.11,25.89-0.02,51.78,0.07,77.6801
		c49.7,0.26,99.39,0.02,149.09,0.11c53.96-0.1,107.92,0.1799,161.87-0.14c0.08-25.8-0.04-51.6,0.06-77.4
		c28.36-0.6,56.7401-0.0499,85.11-0.26c23.45,0.1801,46.8999-0.2899,70.34,0.23c-0.11,51.75,0.1799,103.51-0.14,155.27
		c-219.42,0.1901-438.84,0.01-658.27,0.09c-13.81-0.0699-27.62,0.0901-41.42-0.08c0.04-103.54,0-207.0699,0-310.6
		c-14.48-0.92-29.02-0.21-43.52-0.39c-89.19-0.06-178.38-0.02-267.57-0.04c-25.8,0.02-51.61-0.05-77.41,0.01
		c-0.73-7.92-0.23-15.88-0.35-23.81C77.7,855.67,77.7,724.31,77.7,592.95C77.86,577.02,77.37,561.08,77.97,545.17z"/>
	<path fill="#047A00" stroke="#047A00" stroke-width="0.394" d="M777.68,1012.97c-0.05-2.84,3.53-2.11,5.39-2.25
		c23.98,0.3,47.98-0.35,71.95,0.34c0.82,17.27,0.14,34.6,0.38,51.89c-0.28,8.5601,0.55,17.17-0.4901,25.6901
		c-25.64-0.09-51.27-0.05-76.91-0.01c-0.91-10.5-0.14-21.08-0.39-31.61C777.64,1042.33,777.51,1027.64,777.68,1012.97z"/>
	<path fill="#047A00" stroke="#047A00" stroke-width="0.394" d="M1321.83,1010.92c24.8401-0.03,49.6901,0.05,74.53-0.06
		c1.1-0.03,2.22-0.05,3.36-0.06c-0.1,25.91,0.01,51.83-0.0599,77.7401c25.8099,0.85,51.6699-0.3,77.48,0.5699
		c0.37,49.9401,0.04,99.89,0.17,149.83c-0.0701,79.4901,0.0199,158.9901-0.01,238.4901c-25.8101,0.12-51.62,0.0199-77.4301,0.0499
		c-0.39-48.5-0.05-97.01-0.17-145.51c0.01-55.98,0.01-111.97,0-167.96c-0.1599-25.11,0.3601-50.25-0.2899-75.35
		c-24.4701-0.1-48.9501-0.0601-73.42-0.01c-1.28-0.27-3.9399,0.41-3.88-1.62c-0.61-13.99,0.01-28.03-0.24-42.03
		C1322.16,1033.64,1321.67,1022.28,1321.83,1010.92z"/>
	<path fill="#377933" stroke="#377933" stroke-width="0.394" d="M156.03,933c129.53-0.26,259.06,0.04,388.6-0.15l-0.88,0.86
		c-7.88,0.89-15.83,0.16-23.74,0.38c-97.01-0.13-194.03-0.05-291.04,0.03c-23.97,0.05-47.95-0.44-71.92,0.28
		C156.8,934.05,156.29,933.35,156.03,933z"/>
	<path fill="#333101" stroke="#333101" stroke-width="0.394" d="M544.63,932.85l0.27-0.05c9.68-0.43,19.39-0.05,29.08-0.17
		c171.4-0.09,342.81,0.16,514.21-0.12l0.4401,0.24l0.05,1.16c-23.88,0.55-47.79,0.11-71.6801,0.25c-150.67,0-301.33-0.0099-452,0.01
		c-7.08-0.07-14.2,0.34-21.25-0.46L544.63,932.85z"/>
	<path fill="#3FA53C" stroke="#3FA53C" stroke-width="0.394" d="M1088.63,932.75c79.4399,0.23,158.88,0.04,238.3199,0.1
		c24.26,0.14,48.54-0.28,72.8101,0.23c0.02,25.9,0.04,51.81-0.04,77.72c-1.14,0.01-2.26,0.03-3.36,0.06
		c1.17-2.47,2.17-5.09,2.05-7.87c-0.14-22.76,0.15-45.51-0.04-68.27c-83.11-0.39-166.24-0.03-249.36-0.16
		c-19.79,0.19-39.6-0.37-59.39,0.24c0.25,2.37,0.61,4.76,0.61,7.16c-0.87,12.33-0.9299,24.75,0.22,37.06
		c0.2101,10.6-0.1599,21.22,0.1901,31.83c-0.49-0.5699-1.47-1.7-1.97-2.2599c0.0599-24.89,0.0299-49.79,0.01-74.6801L1088.63,932.75
		z"/>
	<path fill="#21AC1B" stroke="#21AC1B" stroke-width="0.394" d="M1089.62,934.8c19.79-0.61,39.6-0.05,59.39-0.24
		c83.12,0.13,166.25-0.23,249.36,0.16c0.1901,22.76-0.1,45.51,0.04,68.27c0.12,2.78-0.88,5.4-2.05,7.87
		c-24.84,0.11-49.6899,0.03-74.53,0.06c-25.88,0-51.7699-0.3-77.64,0.15c0.03,23.65-0.0499,47.3,0.04,70.95
		c0.13,3.71-1.35,7.24-1.1799,10.96c0.1599,24.67-0.2201,49.35,0.26,74.02c-0.4401,25.99-0.26,52-0.03,77.99
		c-0.4,19.67-0.12,39.34-0.2101,59.01c0.16,11.02-0.23,22.0601,0.27,33.08c-0.51,11.29-0.1699,22.61-0.26,33.92
		c0.12,9.28-0.45,18.61,0.79,27.85l0.05,0.6c-24.64,0.5601-49.3,0.0801-73.9501,0.24c-234.4399,0.05-468.87-0.08-703.3099,0.0701
		c-0.31-25.97-0.1-51.9401-0.1-77.9c13.8,0.17,27.61,0.01,41.42,0.08c219.43-0.08,438.85,0.1001,658.27-0.09
		c0.3199-51.76,0.03-103.52,0.14-155.27c-23.4401-0.5199-46.89-0.0499-70.34-0.23c-28.37,0.2101-56.75-0.34-85.11,0.26
		c-0.1,25.8,0.02,51.6-0.06,77.4c-53.95,0.3199-107.91,0.04-161.87,0.14c-49.7-0.09-99.39,0.15-149.09-0.11
		c-0.09-25.9,0.04-51.79-0.07-77.6801c51.72,0.09,103.44,0.02,155.17,0.04c51.92-0.09,103.86,0.1699,155.78-0.13
		c0.06-51.8101-0.11-103.63,0.08-155.44c25.89-0.13,51.79,0.16,77.6801-0.15c0.0299-0.52,0.09-1.57,0.11-2.09
		c0.5,0.56,1.48,1.69,1.97,2.2599c-0.35-10.61,0.02-21.23-0.1901-31.83c-1.1499-12.31-1.09-24.73-0.22-37.06
		C1090.23,939.56,1089.87,937.17,1089.62,934.8z"/>
	<path fill="#8BC68A" stroke="#8BC68A" stroke-width="0.394" d="M1399.66,1088.54c26.01-0.5901,52.0499,0.1,78.0699-0.3301
		c-0.2,129.74,0.13,259.48-0.16,389.2101l-0.2699,0.01c0.0299-79.5-0.0601-159,0.01-238.4901c-0.13-49.9399,0.2-99.8899-0.17-149.83
		C1451.33,1088.24,1425.47,1089.39,1399.66,1088.54z"/>
	<path fill="#00175A" stroke="#00175A" stroke-width="0.394" d="M466.57,1477.48c51.9,0.11,103.8,0.02,155.71,0.05
		c-0.2401,128.6,0.04,257.2-0.14,385.7999c0.01,0.75,0.03,2.24,0.04,2.99c-25.99-0.0699-51.97,0.14-77.96-0.12
		c0.16-25.9099,0.03-51.8199,0.09-77.72c-0.01-77.76,0.04-155.53-0.03-233.29c-25.9,0.03-51.81-0.0199-77.72,0.03
		C466.56,1529.3101,466.55,1503.39,466.57,1477.48z"/>
	<path fill="#00175A" stroke="#00175A" stroke-width="0.394" d="M699.66,1554.71c8.06-1.01,16.2401-0.0699,24.35-0.4199
		c94.01,0.02,188.02-0.05,282.03,0.0499c12.6,1.4701,25.28,0.8101,37.94,0.9401c14.8301,0.0699,29.67-0.14,44.51,0.11
		c0.29,103.23-0.11,206.46,0.2,309.6799l0.15,0.9c25.76,0.41,51.53-0.27,77.29,0.3101c-10.7,1-21.45,0.2999-32.16,0.47
		c-15.0699-0.1-30.15,0.26-45.21-0.24c-2.9401-1.77-6.47-1.4-9.74-1.39c-21.3201,0.34-42.66-0.09-63.96-0.26
		c-2-0.1799-2.31-2.3199-2.26-3.89c0.09-98.65,0.01-197.3099,0.04-295.96c0.11-2.41,0.49-4.77,0.89-7.12
		c-0.9-0.79-1.8-1.58-2.69-2.3c-0.22-0.1599-0.65-0.48-0.87-0.63C906.67,1554.62,803.16,1555.11,699.66,1554.71z"/>
	<path fill="#1640B9" stroke="#1640B9" stroke-width="0.394" d="M622.28,1477.53c180.93-0.04,361.87,0.0499,542.8099-0.04
		c0.05,120.17-0.08,240.35,0.12,360.53c-0.21,8.9399,0.4701,17.91-0.26,26.84c-9.6599,0.75-19.34,0.0701-29,0.28
		c-15.75-0.04-31.51,0.08-47.26-0.0701c-0.3099-103.22,0.0901-206.45-0.2-309.6799c-14.84-0.25-29.6799-0.04-44.51-0.11
		c-12.66-0.13-25.34,0.53-37.94-0.9401c-94.0099-0.1-188.02-0.0299-282.03-0.0499c-8.11,0.35-16.29-0.5901-24.35,0.4199
		c-0.77,0.87-2.34,1.5801-1.97,2.99c1.22,8.05,0.58,16.2001,0.7,24.3101c0.01,85.67,0.01,171.33,0.01,257
		c-0.13,8.04,0.5099,16.17-0.8,24.16c0.08,1.35-1.28,2.1899-2.53,2.08c-21.03-0.1801-42.06-0.1-63.09-0.03
		c-3.34-0.11-7.16,0.5801-9.84-1.89C622.32,1734.73,622.04,1606.13,622.28,1477.53z"/>
	<path fill="#1F3E96" stroke="#1F3E96" stroke-width="0.394" d="M1165.09,1477.49l1.3-0.01
		c0.08,103.6801-0.0601,207.36,0.0699,311.04c0.3501,25.91-0.21,51.84,0.27,77.75l-0.6,0.01c-25.76-0.5801-51.53,0.1-77.29-0.3101
		l-0.15-0.9c15.75,0.15,31.51,0.03,47.26,0.0701c9.66-0.21,19.3401,0.47,29-0.28c0.7301-8.9299,0.05-17.9,0.26-26.84
		C1165.01,1717.84,1165.14,1597.66,1165.09,1477.49z"/>
	<path fill="#2D4CA8" stroke="#2D4CA8" stroke-width="0.394" d="M697.69,1557.7c-0.37-1.4099,1.2-2.12,1.97-2.99l0.17,1.29
		c0.16,103.4301,0.07,206.86,0.04,310.3c-25.89,0.0599-51.79,0.0199-77.69,0.0199c-0.01-0.75-0.03-2.24-0.04-2.99
		c2.68,2.4701,6.5,1.78,9.84,1.89c21.03-0.0699,42.06-0.15,63.09,0.03c1.25,0.11,2.61-0.73,2.53-2.08
		c1.31-7.99,0.67-16.12,0.8-24.16c0-85.67,0-171.33-0.01-257C698.27,1573.9,698.91,1565.75,697.69,1557.7z"/>
	<path fill="#D0DCFD" stroke="#D0DCFD" stroke-width="0.394" d="M699.66,1554.71c103.5,0.4,207.01-0.09,310.51,0.25
		c0.22,0.15,0.65,0.4701,0.87,0.63c-0.13,80.4501-0.02,160.9-0.05,241.35c-0.14,23.1201,0.26,46.25-0.2,69.3701
		c-1.16-9.7401-0.21-19.5601-0.49-29.3301c-0.03-86,0.03-171.99-0.02-257.98c-0.09-7.61,0.3199-15.23-0.2401-22.8199
		c-103.4-0.3401-206.81,0.0399-310.21-0.1801L699.66,1554.71z"/>
	<path fill="#051545" stroke="#051545" stroke-width="0.394" d="M1011.04,1555.59c0.89,0.7201,1.79,1.51,2.69,2.3
		c-0.4,2.35-0.78,4.71-0.89,7.12c-0.03,98.65,0.05,197.3099-0.04,295.96c-0.05,1.5701,0.26,3.7101,2.26,3.89
		c21.3,0.17,42.64,0.6,63.96,0.26c3.27-0.01,6.7999-0.38,9.74,1.39c-15.9401,0.11-31.87,0.09-47.8101,0.0699
		c-6.2999,0.04-12.62-0.37-18.8799,0.4501c-3.78,0.47-7.55-0.25-11.28-0.72c0.46-23.1201,0.06-46.25,0.2-69.3701
		C1011.02,1716.49,1010.91,1636.04,1011.04,1555.59z"/>
	<path fill="#292A2F" stroke="#292A2F" stroke-width="0.394" d="M388.78,1788.51c51.84-0.08,103.69,0,155.53-0.03
		c-0.06,25.9,0.07,51.8101-0.09,77.72c-51.81-0.0499-103.61,0.1101-155.41-0.0599C388.78,1840.26,388.83,1814.39,388.78,1788.51z"/>
	<path fill="#292A2F" stroke="#292A2F" stroke-width="0.394" d="M1166.46,1788.52c51.8201-0.09,103.64-0.02,155.4701-0.04
		c-0.01,25.9-0.01,51.8-0.01,77.7001c-51.7301,0.08-103.4601-0.1101-155.1901,0.09
		C1166.25,1840.36,1166.8101,1814.4301,1166.46,1788.52z"/>
	<path fill="#00071A" stroke="#00071A" stroke-width="0.394" d="M388.81,1866.14c51.8,0.17,103.6,0.01,155.41,0.0599
		c25.9901,0.26,51.97,0.05,77.96,0.12c25.9,0,51.8,0.04,77.69-0.0199c-0.07,17.8899-0.01,35.7999-0.02,53.7H388.81
		C388.81,1902.04,388.81,1884.09,388.81,1866.14z"/>
	<path fill="#00071A" stroke="#00071A" stroke-width="0.394" d="M1010.79,1866.3101c3.73,0.47,7.5,1.1899,11.28,0.72
		c6.2599-0.8201,12.58-0.41,18.8799-0.4501c15.9401,0.02,31.87,0.04,47.8101-0.0699c15.0599,0.5,30.14,0.14,45.21,0.24
		c10.7101-0.17,21.4601,0.53,32.16-0.47l0.6-0.01c51.73-0.2001,103.46-0.01,155.1901-0.09c0.01,17.9399,0,35.88,0,53.8199h-311.03
		C1010.82,1902.1,1011.03,1884.2,1010.79,1866.3101z"/>
</g>
</svg>
